PathFileType	4	(X/Y/Z)	Walk10.trc
DataRate	CameraRate	NumFrames	NumMarkers	Units	OrigDataRate	OrigDataStartFrame	OrigNumFrames
200.000000	200.000000	9	59	mm	200.000000	460	520
Frame#	Times		LFHD		RFHD		CLAV		RACR1		RUA1		RFA1		LACR1		LUA1		LFA1		LWRU		RTH1		RTH3		LTH2		LWRR		RWRR		LCAR		RElbow		RBack		RTB3		RCAR		LTH3		RTB1		LLFC		RWRU		RTB4		T10		RASI		C7		LTH4		LBHD		LASI		STRN		RBHD		RPSI		LTB2		LTH1		RTH2		LTB4		LToe		LTB1		LElbowM		LMMAL		RTH4		LElbow		RToe		LTB3		LCAL		LMT1		RElbowM		LMT5		RMT1		RTB2		LPSI		LLMAL		RLFC		RMT5		RCAL		RLMAL		RMMAL
			X1	Y1	Z1	X2	Y2	Z2	X3	Y3	Z3	X4	Y4	Z4	X5	Y5	Z5	X6	Y6	Z6	X7	Y7	Z7	X8	Y8	Z8	X9	Y9	Z9	X10	Y10	Z10	X11	Y11	Z11	X12	Y12	Z12	X13	Y13	Z13	X14	Y14	Z14	X15	Y15	Z15	X16	Y16	Z16	X17	Y17	Z17	X18	Y18	Z18	X19	Y19	Z19	X20	Y20	Z20	X21	Y21	Z21	X22	Y22	Z22	X23	Y23	Z23	X24	Y24	Z24	X25	Y25	Z25	X26	Y26	Z26	X27	Y27	Z27	X28	Y28	Z28	X29	Y29	Z29	X30	Y30	Z30	X31	Y31	Z31	X32	Y32	Z32	X33	Y33	Z33	X34	Y34	Z34	X35	Y35	Z35	X36	Y36	Z36	X37	Y37	Z37	X38	Y38	Z38	X39	Y39	Z39	X40	Y40	Z40	X41	Y41	Z41	X42	Y42	Z42	X43	Y43	Z43	X44	Y44	Z44	X45	Y45	Z45	X46	Y46	Z46	X47	Y47	Z47	X48	Y48	Z48	X49	Y49	Z49	X50	Y50	Z50	X51	Y51	Z51	X52	Y52	Z52	X53	Y53	Z53	X54	Y54	Z54	X55	Y55	Z55	X56	Y56	Z56	X57	Y57	Z57	X58	Y58	Z58	X59	Y59	Z59

460	2.3	714.39	1426.7	-36.584	703.63	1414.4	59.039	692.29	1175.9	-5.1185	612.48	1204.5	172.25	627.31	1069	259.93	720.24	840.07	311.99	622.59	1193	-197.43	638.99	1029.2	-265.27	652.75	822.9	-322.06	631.06	715.48	-354.21	617.98	627.68	223.43	595.28	460.2	185.05	722.01	587.44	-146.16	678.66	710.1	-313.31	756.78	745.15	282.95	667.99	667.84	-365.29	639.95	943.78	298.48	499.07	1134.2	107.62	405.78	156.82	75.351	780.94	699.76	339.95	693.95	484.08	-146.48	532.97	265.8	115.27	733.37	402.34	-106.8	720.43	740.97	345.18	466.54	212.16	94.834	468.2	1053.5	2.4739	695.43	819.08	167.73	548.56	1255.3	-13.226	675.51	565.04	-176.14	589.64	1346.3	-70.924	691.5	805.65	-148.41	748.63	1072.6	0.61456	575.98	1337.8	61.834	436.96	827.62	66.504	751.82	218.09	-92.597	657.02	646.33	-198.91	661.42	541.53	187.33	767.26	221.09	-32.532	908.5	35.277	-24.329	765.72	308.49	-38.117	577.59	892.89	-214.8	751.98	74.714	15.056	604.7	544.06	207	603.95	915.66	-281.56	405.54	26.834	57.246	775.75	138.48	-28.089	691.53	42.173	-19.567	859.83	38.443	-0.34069	596.28	900.38	229.46	818.57	19.401	-82.706	367.81	41.28	20.206	433.86	236.51	140.14	429.68	826.58	-39.601	734.64	56.952	-62.873	550.82	378.69	165.07	337.66	44.539	106.96	277.25	172.88	45.595	322	142.7	96.277	349.65	145.06	19.096
461	2.305	720.45	1427.4	-37.229	709.53	1415.2	58.375	698.18	1176.7	-5.8015	618.36	1205.7	171.5	632.64	1070.2	259.3	724.57	840.68	311.49	628.9	1193.8	-198	646.61	1029.9	-265.3	661.07	823.44	-321.5	640.44	715.69	-353.19	626.04	628.07	223.52	606.32	459.97	186.13	727.58	588.1	-146.63	687.87	710.91	-311.99	760.58	745.4	282.59	677.84	668.16	-363.72	644.88	944.79	297.6	504.91	1135.4	107.1	414.6	158.99	76.984	784.3	699.76	339.63	699.12	484.83	-146.98	543.54	265.95	117.19	737.94	402.59	-107.13	724.07	741.56	344.78	476.28	213.41	96.534	474.08	1054.3	2.0665	702.1	819.78	166.45	554.41	1256	-13.987	680.99	565.88	-176.59	595.67	1347.1	-71.752	697.61	806.96	-148.66	754.44	1073.5	-0.62712	581.78	1338.7	61.006	443.3	827.53	67.114	754.33	217.9	-92.788	662.79	647.26	-199.33	671.03	542.56	187.74	769.51	220.77	-32.652	908.7	34.178	-23.954	769.12	308.21	-38.341	584.82	893.49	-214.97	752.26	74.633	15.083	614.27	544.11	207.55	611.45	916.13	-281.66	408.72	26.61	58.246	776.98	138.07	-28.067	691.64	42.387	-19.634	859.92	37.645	-0.13938	601.59	901.7	228.11	818.64	19.308	-82.884	372.79	42.899	20.836	443.62	238.67	141.34	435.48	827.25	-39.293	735.02	56.938	-62.861	562.5	378.35	166.4	342.47	46.918	107.16	286.93	178.1	46.117	330.34	146.28	96.97	358.76	148.1	20.167
462	2.31	726.5	1428	-37.855	715.43	1415.9	57.731	704.04	1177.6	-6.4374	624.2	1207	170.8	637.97	1071.5	258.73	728.91	841.31	311.01	635.13	1194.6	-198.51	654.24	1030.8	-265.27	669.44	824.06	-320.9	649.91	715.98	-352.15	634.08	628.5	223.57	617.39	459.85	187.12	733.03	588.63	-147.18	697.16	711.81	-310.64	764.36	745.68	282.22	687.81	668.6	-362.12	649.81	945.83	296.77	510.74	1136.5	106.63	423.75	161.13	78.597	787.67	699.75	339.26	704.05	485.49	-147.48	554.3	266.21	118.99	742.29	402.76	-107.46	727.73	742.17	344.39	486.29	214.7	98.165	479.94	1055.1	1.7047	708.73	820.49	165.22	560.21	1256.8	-14.687	686.3	566.64	-177.08	601.68	1348	-72.544	703.62	808.29	-148.94	760.21	1074.4	-1.8147	587.57	1339.6	60.217	449.61	827.53	67.685	756.68	217.69	-92.965	668.43	648.11	-199.78	680.63	543.69	188.1	771.62	220.45	-32.764	908.82	33.305	-23.614	772.35	307.91	-38.556	592.04	894.12	-215.14	752.49	74.568	15.114	623.83	544.24	208.04	618.94	916.66	-281.75	412.77	26.411	59.505	778.11	137.67	-28.047	691.7	42.555	-19.681	859.96	36.999	0.039261	606.91	903.06	226.79	818.68	19.296	-83.04	378.56	44.618	21.669	453.67	240.81	142.51	441.25	827.97	-38.997	735.32	56.936	-62.845	574.24	378.12	167.62	348.05	49.391	107.53	296.85	182.95	46.725	339.08	149.72	97.717	368.16	151.02	21.244
463	2.315	732.56	1428.7	-38.46	721.34	1416.7	57.109	709.86	1178.5	-7.0243	630.01	1208.2	170.14	643.32	1072.7	258.21	733.25	841.97	310.55	641.29	1195.5	-198.96	661.85	1031.6	-265.21	677.83	824.76	-320.29	659.47	716.35	-351.09	642.07	629	223.59	628.44	459.84	188	738.35	589.03	-147.8	706.51	712.81	-309.27	768.15	745.98	281.84	697.89	669.14	-360.49	654.75	946.88	295.99	516.56	1137.6	106.21	433.21	163.23	80.154	791.05	699.75	338.86	708.74	486.05	-147.99	565.22	266.6	120.63	746.44	402.86	-107.79	731.42	742.8	343.99	496.54	216.03	99.697	485.79	1055.9	1.3859	715.28	821.21	164.03	565.96	1257.6	-15.326	691.43	567.32	-177.58	607.68	1348.8	-73.298	709.53	809.62	-149.24	765.92	1075.3	-2.9367	593.35	1340.6	59.47	455.89	827.62	68.211	758.88	217.48	-93.133	673.94	648.89	-200.23	690.19	544.91	188.41	773.62	220.13	-32.879	908.89	32.625	-23.306	775.41	307.59	-38.77	599.23	894.76	-215.3	752.7	74.515	15.147	633.35	544.45	208.45	626.43	917.23	-281.84	417.76	26.254	61.045	779.15	137.28	-28.037	691.73	42.685	-19.711	859.95	36.48	0.19876	612.23	904.43	225.52	818.7	19.342	-83.176	385.19	46.403	22.73	463.97	242.91	143.62	447	828.74	-38.713	735.55	56.945	-62.827	585.99	378.01	168.73	354.46	51.935	108.09	306.98	187.39	47.396	348.19	152.99	98.51	377.83	153.8	22.313
464	2.32	738.62	1429.4	-39.042	727.25	1417.5	56.512	715.67	1179.4	-7.5609	635.78	1209.5	169.54	648.68	1074	257.75	737.62	842.62	310.11	647.37	1196.4	-199.36	669.42	1032.5	-265.1	686.26	825.51	-319.65	669.11	716.79	-350	649.99	629.55	223.57	639.41	459.95	188.77	743.53	589.29	-148.47	715.93	713.9	-307.87	771.93	746.29	281.44	708.07	669.8	-358.85	659.69	947.93	295.26	522.36	1138.7	105.84	442.96	165.26	81.625	794.46	699.75	338.42	713.19	486.52	-148.48	576.27	267.11	122.1	750.39	402.89	-108.12	735.15	743.44	343.61	507.01	217.4	101.11	491.63	1056.6	1.1068	721.77	821.95	162.92	571.67	1258.4	-15.907	696.38	567.9	-178.09	613.65	1349.7	-74.014	715.34	810.95	-149.56	771.59	1076.2	-3.9829	599.13	1341.6	58.766	462.14	827.79	68.685	760.91	217.25	-93.298	679.33	649.59	-200.7	699.68	546.21	188.65	775.51	219.8	-33.005	908.92	32.107	-23.026	778.33	307.25	-38.995	606.4	895.39	-215.48	752.88	74.472	15.18	642.8	544.74	208.77	633.9	917.83	-281.92	423.78	26.161	62.882	780.11	136.9	-28.047	691.73	42.781	-19.729	859.9	36.068	0.34203	617.55	905.81	224.3	818.69	19.429	-83.292	392.7	48.212	24.036	474.5	244.94	144.68	452.73	829.56	-38.44	735.73	56.962	-62.808	597.72	378.04	169.7	361.72	54.521	108.86	317.27	191.38	48.105	357.66	156.08	99.339	387.74	156.41	23.358
465	2.325	744.66	1430.1	-39.599	733.17	1418.3	55.941	721.44	1180.3	-8.0467	641.52	1210.7	168.99	654.05	1075.2	257.34	742	843.28	309.7	653.37	1197.3	-199.71	676.95	1033.4	-264.95	694.72	826.3	-319	678.83	717.28	-348.91	657.85	630.17	223.51	650.27	460.19	189.41	748.57	589.43	-149.18	725.4	715.06	-306.45	775.73	746.61	281.04	718.34	670.56	-357.19	664.65	948.97	294.59	528.15	1139.7	105.5	453.01	167.21	82.985	797.92	699.75	337.95	717.42	486.9	-148.96	587.44	267.75	123.38	754.15	402.85	-108.45	738.93	744.09	343.24	517.68	218.79	102.38	497.46	1057.4	0.86413	728.19	822.71	161.88	577.35	1259.2	-16.432	701.15	568.4	-178.59	619.6	1350.6	-74.69	721.04	812.27	-149.9	777.22	1077.1	-4.9436	604.9	1342.7	58.107	468.33	828.04	69.106	762.81	217	-93.467	684.58	650.21	-201.15	709.07	547.6	188.84	777.3	219.46	-33.149	908.92	31.723	-22.773	781.14	306.89	-39.239	613.55	896.02	-215.66	753.05	74.435	15.21	652.16	545.13	209.02	641.35	918.44	-282	430.88	26.151	65.022	781.01	136.53	-28.084	691.72	42.85	-19.737	859.82	35.746	0.47114	622.86	907.17	223.16	818.68	19.543	-83.393	401.13	50	25.601	485.24	246.9	145.66	458.44	830.41	-38.179	735.85	56.984	-62.791	609.4	378.23	170.53	369.84	57.114	109.86	327.72	194.86	48.825	367.47	158.97	100.2	397.91	158.83	24.368
466	2.33	750.69	1430.8	-40.129	739.08	1419.2	55.397	727.19	1181.2	-8.4819	647.21	1211.9	168.5	659.41	1076.4	256.98	746.42	843.93	309.31	659.29	1198.3	-200.02	684.42	1034.4	-264.78	703.2	827.14	-318.32	688.61	717.84	-347.81	665.61	630.86	223.4	660.99	460.57	189.94	753.46	589.45	-149.91	734.91	716.29	-305.02	779.53	746.93	280.63	728.7	671.43	-355.53	669.62	949.98	293.98	533.93	1140.8	105.2	463.35	169.07	84.22	801.43	699.75	337.47	721.44	487.19	-149.41	598.71	268.52	124.47	757.74	402.75	-108.78	742.78	744.73	342.88	528.53	220.2	103.5	503.28	1058.2	0.65393	734.52	823.48	160.94	583	1260	-16.902	705.75	568.82	-179.09	625.53	1351.6	-75.325	726.63	813.55	-150.25	782.82	1078	-5.8108	610.66	1343.8	57.493	474.47	828.36	69.47	764.56	216.75	-93.644	689.71	650.75	-201.6	718.33	549.06	188.96	779.03	219.11	-33.318	908.9	31.449	-22.545	783.84	306.51	-39.51	620.65	896.63	-215.86	753.21	74.404	15.236	661.39	545.62	209.18	648.79	919.06	-282.09	439.08	26.241	67.455	781.86	136.15	-28.153	691.68	42.897	-19.739	859.73	35.498	0.58782	628.16	908.51	222.1	818.65	19.669	-83.48	410.48	51.723	27.429	496.18	248.76	146.56	464.13	831.3	-37.931	735.94	57.011	-62.777	621	378.58	171.22	378.83	59.676	111.09	338.29	197.8	49.527	377.61	161.62	101.08	408.31	161.03	25.338
467	2.335	756.7	1431.5	-40.632	744.99	1420	54.883	732.93	1182.2	-8.867	652.87	1213	168.06	664.77	1077.6	256.68	750.87	844.56	308.95	665.14	1199.2	-200.29	691.81	1035.3	-264.59	711.69	828.01	-317.63	698.45	718.44	-346.69	673.28	631.6	223.26	671.54	461.08	190.33	758.22	589.37	-150.65	744.47	717.58	-303.57	783.37	747.25	280.23	739.14	672.4	-353.86	674.61	950.97	293.44	539.69	1141.8	104.93	473.98	170.81	85.323	805.01	699.77	336.97	725.29	487.42	-149.83	610.08	269.42	125.34	761.17	402.6	-109.11	746.7	745.37	342.54	539.57	221.6	104.46	509.08	1059	0.47187	740.78	824.28	160.08	588.63	1260.8	-17.318	710.2	569.16	-179.58	631.43	1352.5	-75.919	732.12	814.8	-150.62	788.39	1079	-6.5775	616.42	1344.8	56.925	480.55	828.77	69.777	766.18	216.48	-93.834	694.69	651.22	-202.02	727.44	550.59	189.01	780.69	218.75	-33.515	908.87	31.264	-22.34	786.47	306.1	-39.813	627.72	897.21	-216.08	753.37	74.378	15.258	670.49	546.2	209.27	656.2	919.68	-282.18	448.4	26.443	70.161	782.66	135.77	-28.258	691.64	42.928	-19.737	859.63	35.311	0.69418	633.44	909.81	221.15	818.61	19.8	-83.558	420.76	53.338	29.51	507.31	250.51	147.37	469.8	832.21	-37.699	735.99	57.041	-62.766	632.5	379.1	171.76	388.66	62.166	112.56	348.99	200.18	50.191	388.07	164.02	101.97	418.96	162.95	26.265
468	2.34	762.69	1432.2	-41.106	750.89	1420.8	54.397	738.65	1183.1	-9.203	658.49	1214.1	167.68	670.13	1078.7	256.42	755.36	845.16	308.62	670.92	1200	-200.52	699.12	1036.1	-264.38	720.19	828.9	-316.92	708.35	719.08	-345.57	680.85	632.41	223.09	681.9	461.71	190.61	762.83	589.21	-151.38	754.05	718.92	-302.1	787.23	747.56	279.83	749.64	673.47	-352.19	679.62	951.92	292.96	545.43	1142.7	104.68	484.91	172.4	86.294	808.67	699.79	336.46	728.98	487.58	-150.22	621.54	270.43	126.01	764.45	402.41	-109.43	750.69	746	342.22	550.78	222.98	105.27	514.88	1059.9	0.31324	746.96	825.1	159.33	594.26	1261.6	-17.683	714.5	569.43	-180.04	637.32	1353.4	-76.471	737.51	816	-150.99	793.94	1079.9	-7.238	622.18	1345.9	56.403	486.57	829.25	70.025	767.69	216.21	-94.036	699.56	651.62	-202.41	736.39	552.18	189	782.3	218.38	-33.74	908.85	31.15	-22.158	789.02	305.68	-40.146	634.74	897.77	-216.33	753.52	74.355	15.274	679.44	546.88	209.28	663.58	920.29	-282.29	458.82	26.761	73.107	783.42	135.39	-28.397	691.59	42.95	-19.733	859.53	35.17	0.79306	638.68	911.06	220.32	818.57	19.929	-83.628	431.93	54.807	31.822	518.61	252.14	148.08	475.46	833.15	-37.485	736.02	57.073	-62.759	643.91	379.8	172.15	399.32	64.542	114.27	359.82	201.96	50.802	398.83	166.12	102.87	429.88	164.57	27.15
